<?xml version="1.0" encoding="UTF-8" standalone="no"?>
<!DOCTYPE svg PUBLIC "-//W3C//DTD SVG 1.1//EN"
 "http://www.w3.org/Graphics/SVG/1.1/DTD/svg11.dtd">
<!-- Generated by graphviz version 2.36.0 (20140111.2315)
 -->
<!-- Title: controllers_diagram Pages: 1 -->
<svg width="387pt" height="372pt"
 viewBox="0.00 0.00 387.00 372.00" xmlns="http://www.w3.org/2000/svg" xmlns:xlink="http://www.w3.org/1999/xlink">
<g id="graph0" class="graph" transform="scale(1 1) rotate(0) translate(4 368)">
<title>controllers_diagram</title>
<polygon fill="white" stroke="none" points="-4,4 -4,-368 383,-368 383,4 -4,4"/>
<!-- _diagram_info -->
<g id="node1" class="node"><title>_diagram_info</title>
<text text-anchor="start" x="173" y="-78.6" font-family="Times,serif" font-size="13.00">Controllers diagram</text>
<text text-anchor="start" x="173" y="-64.6" font-family="Times,serif" font-size="13.00">Date: Nov 06 2014 &#45; 22:06</text>
<text text-anchor="start" x="173" y="-50.6" font-family="Times,serif" font-size="13.00">Migration version: 20141107015540</text>
<text text-anchor="start" x="173" y="-36.6" font-family="Times,serif" font-size="13.00">Generated by RailRoady 1.2.0</text>
<text text-anchor="start" x="173" y="-22.6" font-family="Times,serif" font-size="13.00">http://railroady.prestonlee.com</text>
</g>
<!-- WelcomeController -->
<g id="node2" class="node"><title>WelcomeController</title>
<path fill="none" stroke="black" d="M252,-270.5C252,-270.5 353,-270.5 353,-270.5 359,-270.5 365,-276.5 365,-282.5 365,-282.5 365,-351.5 365,-351.5 365,-357.5 359,-363.5 353,-363.5 353,-363.5 252,-363.5 252,-363.5 246,-363.5 240,-357.5 240,-351.5 240,-351.5 240,-282.5 240,-282.5 240,-276.5 246,-270.5 252,-270.5"/>
<text text-anchor="middle" x="302.5" y="-348.3" font-family="Times,serif" font-size="14.00">WelcomeController</text>
<polyline fill="none" stroke="black" points="240,-340.5 365,-340.5 "/>
<text text-anchor="start" x="248" y="-325.3" font-family="Times,serif" font-size="14.00">index</text>
<polyline fill="none" stroke="black" points="240,-317.5 365,-317.5 "/>
<polyline fill="none" stroke="black" points="240,-293.5 365,-293.5 "/>
<text text-anchor="start" x="248" y="-278.3" font-family="Times,serif" font-size="14.00">_layout</text>
</g>
<!-- MoviesController -->
<g id="node3" class="node"><title>MoviesController</title>
<path fill="none" stroke="black" d="M27,-0.5C27,-0.5 116,-0.5 116,-0.5 122,-0.5 128,-6.5 128,-12.5 128,-12.5 128,-186.5 128,-186.5 128,-192.5 122,-198.5 116,-198.5 116,-198.5 27,-198.5 27,-198.5 21,-198.5 15,-192.5 15,-186.5 15,-186.5 15,-12.5 15,-12.5 15,-6.5 21,-0.5 27,-0.5"/>
<text text-anchor="middle" x="71.5" y="-183.3" font-family="Times,serif" font-size="14.00">MoviesController</text>
<polyline fill="none" stroke="black" points="15,-175.5 128,-175.5 "/>
<text text-anchor="start" x="23" y="-160.3" font-family="Times,serif" font-size="14.00">create</text>
<text text-anchor="start" x="23" y="-145.3" font-family="Times,serif" font-size="14.00">destroy</text>
<text text-anchor="start" x="23" y="-130.3" font-family="Times,serif" font-size="14.00">edit</text>
<text text-anchor="start" x="23" y="-115.3" font-family="Times,serif" font-size="14.00">index</text>
<text text-anchor="start" x="23" y="-100.3" font-family="Times,serif" font-size="14.00">new</text>
<text text-anchor="start" x="23" y="-85.3" font-family="Times,serif" font-size="14.00">show</text>
<text text-anchor="start" x="23" y="-70.3" font-family="Times,serif" font-size="14.00">update</text>
<polyline fill="none" stroke="black" points="15,-62.5 128,-62.5 "/>
<polyline fill="none" stroke="black" points="15,-38.5 128,-38.5 "/>
<text text-anchor="start" x="23" y="-23.3" font-family="Times,serif" font-size="14.00">_layout</text>
<text text-anchor="start" x="23" y="-8.3" font-family="Times,serif" font-size="14.00">movie_params</text>
</g>
<!-- CommentsController -->
<g id="node4" class="node"><title>CommentsController</title>
<path fill="none" stroke="black" d="M177,-120.5C177,-120.5 285,-120.5 285,-120.5 291,-120.5 297,-126.5 297,-132.5 297,-132.5 297,-231.5 297,-231.5 297,-237.5 291,-243.5 285,-243.5 285,-243.5 177,-243.5 177,-243.5 171,-243.5 165,-237.5 165,-231.5 165,-231.5 165,-132.5 165,-132.5 165,-126.5 171,-120.5 177,-120.5"/>
<text text-anchor="middle" x="231" y="-228.3" font-family="Times,serif" font-size="14.00">CommentsController</text>
<polyline fill="none" stroke="black" points="165,-220.5 297,-220.5 "/>
<text text-anchor="start" x="173" y="-205.3" font-family="Times,serif" font-size="14.00">create</text>
<text text-anchor="start" x="173" y="-190.3" font-family="Times,serif" font-size="14.00">destroy</text>
<polyline fill="none" stroke="black" points="165,-182.5 297,-182.5 "/>
<polyline fill="none" stroke="black" points="165,-158.5 297,-158.5 "/>
<text text-anchor="start" x="173" y="-143.3" font-family="Times,serif" font-size="14.00">_layout</text>
<text text-anchor="start" x="173" y="-128.3" font-family="Times,serif" font-size="14.00">comment_params</text>
</g>
<!-- ApplicationController -->
<g id="node5" class="node"><title>ApplicationController</title>
<path fill="none" stroke="black" d="M12,-225.5C12,-225.5 124,-225.5 124,-225.5 130,-225.5 136,-231.5 136,-237.5 136,-237.5 136,-307.5 136,-307.5 136,-313.5 130,-319.5 124,-319.5 124,-319.5 12,-319.5 12,-319.5 6,-319.5 -1.42109e-14,-313.5 -1.42109e-14,-307.5 -1.42109e-14,-307.5 -1.42109e-14,-237.5 -1.42109e-14,-237.5 -1.42109e-14,-231.5 6,-225.5 12,-225.5"/>
<text text-anchor="middle" x="68" y="-304.3" font-family="Times,serif" font-size="14.00">ApplicationController</text>
<polyline fill="none" stroke="black" points="-1.42109e-14,-296.5 136,-296.5 "/>
<polyline fill="none" stroke="black" points="-1.42109e-14,-272.5 136,-272.5 "/>
<polyline fill="none" stroke="black" points="-1.42109e-14,-248.5 136,-248.5 "/>
<text text-anchor="start" x="8" y="-233.3" font-family="Times,serif" font-size="14.00">_layout</text>
</g>
</g>
</svg>
