<?xml version="1.0" encoding="UTF-8" standalone="no"?>
<!DOCTYPE svg PUBLIC "-//W3C//DTD SVG 1.1//EN"
 "http://www.w3.org/Graphics/SVG/1.1/DTD/svg11.dtd">
<!-- Generated by graphviz version 2.36.0 (20140111.2315)
 -->
<!-- Title: models_diagram Pages: 1 -->
<svg width="380pt" height="158pt"
 viewBox="0.00 0.00 380.00 158.00" xmlns="http://www.w3.org/2000/svg" xmlns:xlink="http://www.w3.org/1999/xlink">
<g id="graph0" class="graph" transform="scale(1 1) rotate(0) translate(4 154)">
<title>models_diagram</title>
<polygon fill="white" stroke="none" points="-4,4 -4,-154 376,-154 376,4 -4,4"/>
<!-- _diagram_info -->
<g id="node1" class="node"><title>_diagram_info</title>
<text text-anchor="start" x="7" y="-135.6" font-family="Times,serif" font-size="13.00">Models diagram</text>
<text text-anchor="start" x="7" y="-121.6" font-family="Times,serif" font-size="13.00">Date: Nov 06 2014 &#45; 22:06</text>
<text text-anchor="start" x="7" y="-107.6" font-family="Times,serif" font-size="13.00">Migration version: 20141107015540</text>
<text text-anchor="start" x="7" y="-93.6" font-family="Times,serif" font-size="13.00">Generated by RailRoady 1.2.0</text>
<text text-anchor="start" x="7" y="-79.6" font-family="Times,serif" font-size="13.00">http://railroady.prestonlee.com</text>
</g>
<!-- Movie -->
<g id="node2" class="node"><title>Movie</title>
<ellipse fill="none" stroke="black" cx="265" cy="-111" rx="34.1708" ry="18"/>
<text text-anchor="middle" x="265" y="-107.3" font-family="Times,serif" font-size="14.00">Movie</text>
</g>
<!-- Comment -->
<g id="node4" class="node"><title>Comment</title>
<ellipse fill="none" stroke="black" cx="265" cy="-18" rx="46.2191" ry="18"/>
<text text-anchor="middle" x="265" y="-14.3" font-family="Times,serif" font-size="14.00">Comment</text>
</g>
<!-- Movie&#45;&gt;Comment -->
<g id="edge1" class="edge"><title>Movie&#45;&gt;Comment</title>
<path fill="none" stroke="#513b1f" d="M265,-84.7285C265,-72.7246 265,-58.3622 265,-46.1291"/>
<ellipse fill="none" stroke="#513b1f" cx="265" cy="-88.8836" rx="4" ry="4"/>
<polygon fill="#513b1f" stroke="#513b1f" points="265,-46.0397 269.5,-36.0396 265,-41.0397 265,-36.0397 265,-36.0397 265,-36.0397 265,-41.0397 260.5,-36.0397 265,-46.0397 265,-46.0397"/>
</g>
<!-- User -->
<g id="node3" class="node"><title>User</title>
<ellipse fill="none" stroke="black" cx="345" cy="-111" rx="26.949" ry="18"/>
<text text-anchor="middle" x="345" y="-107.3" font-family="Times,serif" font-size="14.00">User</text>
</g>
</g>
</svg>
