<?xml version="1.0" encoding="UTF-8" standalone="no"?>
<!DOCTYPE svg PUBLIC "-//W3C//DTD SVG 1.1//EN"
 "http://www.w3.org/Graphics/SVG/1.1/DTD/svg11.dtd">
<!-- Generated by graphviz version 2.36.0 (20140111.2315)
 -->
<!-- Title: models_diagram Pages: 1 -->
<svg width="593pt" height="454pt"
 viewBox="0.00 0.00 593.00 454.00" xmlns="http://www.w3.org/2000/svg" xmlns:xlink="http://www.w3.org/1999/xlink">
<g id="graph0" class="graph" transform="scale(1 1) rotate(0) translate(4 450)">
<title>models_diagram</title>
<polygon fill="white" stroke="none" points="-4,4 -4,-450 589,-450 589,4 -4,4"/>
<!-- _diagram_info -->
<g id="node1" class="node"><title>_diagram_info</title>
<text text-anchor="start" x="7" y="-326.6" font-family="Times,serif" font-size="13.00">Models diagram</text>
<text text-anchor="start" x="7" y="-312.6" font-family="Times,serif" font-size="13.00">Date: Nov 06 2014 &#45; 22:06</text>
<text text-anchor="start" x="7" y="-298.6" font-family="Times,serif" font-size="13.00">Migration version: 20141107015540</text>
<text text-anchor="start" x="7" y="-284.6" font-family="Times,serif" font-size="13.00">Generated by RailRoady 1.2.0</text>
<text text-anchor="start" x="7" y="-270.6" font-family="Times,serif" font-size="13.00">http://railroady.prestonlee.com</text>
</g>
<!-- Movie -->
<g id="node2" class="node"><title>Movie</title>
<path fill="none" stroke="black" d="M243,-241.5C243,-241.5 355,-241.5 355,-241.5 361,-241.5 367,-247.5 367,-253.5 367,-253.5 367,-350.5 367,-350.5 367,-356.5 361,-362.5 355,-362.5 355,-362.5 243,-362.5 243,-362.5 237,-362.5 231,-356.5 231,-350.5 231,-350.5 231,-253.5 231,-253.5 231,-247.5 237,-241.5 243,-241.5"/>
<text text-anchor="middle" x="299" y="-347.3" font-family="Times,serif" font-size="14.00">Movie</text>
<polyline fill="none" stroke="black" points="231,-339.5 367,-339.5 "/>
<text text-anchor="start" x="239" y="-324.3" font-family="Times,serif" font-size="14.00">id :integer</text>
<text text-anchor="start" x="239" y="-309.3" font-family="Times,serif" font-size="14.00">title :string</text>
<text text-anchor="start" x="239" y="-294.3" font-family="Times,serif" font-size="14.00">description :string</text>
<text text-anchor="start" x="239" y="-279.3" font-family="Times,serif" font-size="14.00">year_released :integer</text>
<text text-anchor="start" x="239" y="-264.3" font-family="Times,serif" font-size="14.00">created_at :datetime</text>
<text text-anchor="start" x="239" y="-249.3" font-family="Times,serif" font-size="14.00">updated_at :datetime</text>
</g>
<!-- Comment -->
<g id="node4" class="node"><title>Comment</title>
<path fill="none" stroke="black" d="M245.5,-0.5C245.5,-0.5 352.5,-0.5 352.5,-0.5 358.5,-0.5 364.5,-6.5 364.5,-12.5 364.5,-12.5 364.5,-109.5 364.5,-109.5 364.5,-115.5 358.5,-121.5 352.5,-121.5 352.5,-121.5 245.5,-121.5 245.5,-121.5 239.5,-121.5 233.5,-115.5 233.5,-109.5 233.5,-109.5 233.5,-12.5 233.5,-12.5 233.5,-6.5 239.5,-0.5 245.5,-0.5"/>
<text text-anchor="middle" x="299" y="-106.3" font-family="Times,serif" font-size="14.00">Comment</text>
<polyline fill="none" stroke="black" points="233.5,-98.5 364.5,-98.5 "/>
<text text-anchor="start" x="241.5" y="-83.3" font-family="Times,serif" font-size="14.00">id :integer</text>
<text text-anchor="start" x="241.5" y="-68.3" font-family="Times,serif" font-size="14.00">commenter :string</text>
<text text-anchor="start" x="241.5" y="-53.3" font-family="Times,serif" font-size="14.00">body :text</text>
<text text-anchor="start" x="241.5" y="-38.3" font-family="Times,serif" font-size="14.00">movie_id :integer</text>
<text text-anchor="start" x="241.5" y="-23.3" font-family="Times,serif" font-size="14.00">created_at :datetime</text>
<text text-anchor="start" x="241.5" y="-8.3" font-family="Times,serif" font-size="14.00">updated_at :datetime</text>
</g>
<!-- Movie&#45;&gt;Comment -->
<g id="edge1" class="edge"><title>Movie&#45;&gt;Comment</title>
<path fill="none" stroke="#42ca04" d="M299,-233.022C299,-201.378 299,-163.774 299,-131.895"/>
<ellipse fill="none" stroke="#42ca04" cx="299" cy="-237.307" rx="4" ry="4"/>
<polygon fill="#42ca04" stroke="#42ca04" points="299,-131.761 303.5,-121.761 299,-126.761 299,-121.761 299,-121.761 299,-121.761 299,-126.761 294.5,-121.761 299,-131.761 299,-131.761"/>
</g>
<!-- User -->
<g id="node3" class="node"><title>User</title>
<path fill="none" stroke="black" d="M397,-159C397,-159 573,-159 573,-159 579,-159 585,-165 585,-171 585,-171 585,-433 585,-433 585,-439 579,-445 573,-445 573,-445 397,-445 397,-445 391,-445 385,-439 385,-433 385,-433 385,-171 385,-171 385,-165 391,-159 397,-159"/>
<text text-anchor="middle" x="485" y="-429.8" font-family="Times,serif" font-size="14.00">User</text>
<polyline fill="none" stroke="black" points="385,-422 585,-422 "/>
<text text-anchor="start" x="393" y="-406.8" font-family="Times,serif" font-size="14.00">id :integer</text>
<text text-anchor="start" x="393" y="-391.8" font-family="Times,serif" font-size="14.00">email :string</text>
<text text-anchor="start" x="393" y="-376.8" font-family="Times,serif" font-size="14.00">encrypted_password :string</text>
<text text-anchor="start" x="393" y="-361.8" font-family="Times,serif" font-size="14.00">reset_password_token :string</text>
<text text-anchor="start" x="393" y="-346.8" font-family="Times,serif" font-size="14.00">reset_password_sent_at :datetime</text>
<text text-anchor="start" x="393" y="-331.8" font-family="Times,serif" font-size="14.00">remember_created_at :datetime</text>
<text text-anchor="start" x="393" y="-316.8" font-family="Times,serif" font-size="14.00">sign_in_count :integer</text>
<text text-anchor="start" x="393" y="-301.8" font-family="Times,serif" font-size="14.00">current_sign_in_at :datetime</text>
<text text-anchor="start" x="393" y="-286.8" font-family="Times,serif" font-size="14.00">last_sign_in_at :datetime</text>
<text text-anchor="start" x="393" y="-271.8" font-family="Times,serif" font-size="14.00">current_sign_in_ip :string</text>
<text text-anchor="start" x="393" y="-256.8" font-family="Times,serif" font-size="14.00">last_sign_in_ip :string</text>
<text text-anchor="start" x="393" y="-241.8" font-family="Times,serif" font-size="14.00">created_at :datetime</text>
<text text-anchor="start" x="393" y="-226.8" font-family="Times,serif" font-size="14.00">updated_at :datetime</text>
<text text-anchor="start" x="393" y="-211.8" font-family="Times,serif" font-size="14.00">avatar_file_name :string</text>
<text text-anchor="start" x="393" y="-196.8" font-family="Times,serif" font-size="14.00">avatar_content_type :string</text>
<text text-anchor="start" x="393" y="-181.8" font-family="Times,serif" font-size="14.00">avatar_file_size :integer</text>
<text text-anchor="start" x="393" y="-166.8" font-family="Times,serif" font-size="14.00">avatar_updated_at :datetime</text>
</g>
</g>
</svg>
